<svg xmlns="http://www.w3.org/2000/svg" viewBox="0 0 1640 620" role="img" aria-labelledby="flowz-logo-title flowz-logo-desc">
  <title id="flowz-logo-title">Flowz</title>
  <desc id="flowz-logo-desc">Flowz blue fluid vector wordmark with transparent background. The lettering is stored as SVG paths and does not depend on external fonts.</desc>
  <defs>
    <path id="flowz-wordmark" d="M 156.152 120.605 C 155.137 121.452 153.846 121.981 152.28 122.192 C 150.715 122.404 149.001 122.51 147.139 122.51 C 143.415 122.51 139.902 122.573 136.602 122.7 C 133.301 122.827 130.846 122.891 129.238 122.891 C 127.122 122.891 124.287 123.06 120.732 123.398 C 117.178 123.737 113.327 124.16 109.18 124.668 C 105.033 125.176 100.801 125.789 96.484 126.509 C 92.168 127.228 88.148 127.969 84.424 128.73 C 80.7 129.492 77.505 130.275 74.839 131.079 C 72.173 131.883 70.417 132.624 69.57 133.301 C 69.063 134.147 68.258 136.58 67.158 140.601 C 66.058 144.621 64.958 149.487 63.857 155.2 C 62.757 160.913 61.784 167.113 60.938 173.799 C 60.091 180.485 59.668 186.96 59.668 193.223 C 64.323 192.292 69.105 191.255 74.014 190.112 C 78.923 188.97 84.255 187.891 90.01 186.875 C 93.141 186.367 96.506 185.605 100.103 184.59 C 103.7 183.574 107.318 182.559 110.957 181.543 C 114.596 180.527 118.13 179.639 121.558 178.877 C 124.985 178.115 128.096 177.734 130.889 177.734 C 133.936 177.734 136.496 177.84 138.569 178.052 C 140.643 178.263 142.336 178.708 143.647 179.385 C 144.959 180.062 145.89 181.099 146.44 182.495 C 146.991 183.892 147.266 185.817 147.266 188.271 C 147.266 190.472 146.737 192.609 145.679 194.683 C 144.621 196.756 143.245 198.682 141.553 200.459 C 140.368 201.729 138.146 202.913 134.888 204.014 C 131.629 205.114 128.117 206.108 124.351 206.997 C 120.584 207.886 116.987 208.647 113.56 209.282 C 110.132 209.917 107.656 210.361 106.133 210.615 C 100.208 211.631 94.347 212.752 88.55 213.979 C 82.752 215.207 77.526 216.413 72.871 217.598 C 68.216 218.783 64.386 219.904 61.382 220.962 C 58.377 222.02 56.706 222.887 56.367 223.564 C 55.775 224.919 55.288 226.738 54.907 229.023 C 54.526 231.309 54.209 233.869 53.955 236.704 C 53.701 239.539 53.532 242.523 53.447 245.654 C 53.363 248.786 53.32 251.875 53.32 254.922 C 53.32 259.915 53.299 264.105 53.257 267.49 C 53.215 270.876 53.193 274.303 53.193 277.773 C 53.193 279.889 53.066 281.921 52.813 283.867 C 52.559 285.814 51.987 287.528 51.099 289.009 C 50.21 290.49 48.877 291.675 47.1 292.563 C 45.322 293.452 42.952 293.896 39.99 293.896 C 39.567 293.896 39.123 293.896 38.657 293.896 C 38.192 293.896 37.747 293.854 37.324 293.77 C 36.816 293.685 35.632 293.304 33.77 292.627 C 31.908 291.95 29.961 290.871 27.93 289.39 C 25.898 287.909 24.1 286.068 22.534 283.867 C 20.968 281.667 20.186 279.001 20.186 275.869 C 20.186 266.051 20.736 256.466 21.836 247.114 C 22.936 237.762 23.91 229.235 24.756 221.533 C 24.84 220.941 25.073 219.29 25.454 216.582 C 25.835 213.874 26.322 210.467 26.914 206.362 C 27.507 202.257 28.184 197.645 28.945 192.524 C 29.707 187.404 30.469 182.199 31.23 176.909 C 31.992 171.619 32.733 166.414 33.452 161.294 C 34.172 156.174 34.827 151.54 35.42 147.393 C 36.012 143.245 36.478 139.797 36.816 137.046 C 37.155 134.295 37.324 132.624 37.324 132.031 C 37.324 130.931 37.155 129.81 36.816 128.667 C 36.478 127.524 36.097 126.361 35.674 125.176 C 35.251 123.991 34.87 122.785 34.531 121.558 C 34.193 120.33 34.023 119.082 34.023 117.813 C 34.023 116.204 34.552 114.512 35.61 112.734 C 36.668 110.957 37.98 109.328 39.546 107.847 C 41.112 106.366 42.804 105.138 44.624 104.165 C 46.444 103.192 48.115 102.705 49.639 102.705 C 53.109 102.705 56.071 103.001 58.525 103.594 C 60.98 104.186 63.307 104.482 65.508 104.482 C 68.724 104.482 72.596 104.102 77.124 103.34 C 81.652 102.578 86.794 101.605 92.549 100.42 C 97.542 99.404 102.536 98.452 107.529 97.563 C 112.523 96.675 117.41 95.871 122.192 95.151 C 126.974 94.432 131.566 93.861 135.967 93.438 C 140.368 93.014 144.473 92.803 148.281 92.803 C 149.72 92.803 151.455 93.162 153.486 93.882 C 155.518 94.601 157.485 95.532 159.39 96.675 C 161.294 97.817 162.902 99.108 164.214 100.547 C 165.526 101.986 166.182 103.382 166.182 104.736 C 166.182 107.275 165.483 109.899 164.087 112.607 C 162.69 115.316 160.003 118.024 156.025 120.732 Z M 301.133 205.664 C 301.133 207.611 300.646 210.044 299.673 212.964 C 298.7 215.884 297.07 219.269 294.785 223.12 C 292.5 226.971 289.453 231.309 285.645 236.133 C 281.836 240.957 277.096 246.247 271.426 252.002 C 268.294 255.133 264.761 258.265 260.825 261.396 C 256.89 264.528 252.721 267.3 248.32 269.712 C 243.919 272.124 239.37 274.092 234.673 275.615 C 229.976 277.139 225.299 277.9 220.645 277.9 C 214.382 277.9 208.52 276.8 203.062 274.6 C 197.603 272.399 192.842 269.035 188.779 264.507 C 184.717 259.979 181.522 254.287 179.194 247.432 C 176.867 240.576 175.703 232.536 175.703 223.311 C 175.703 217.301 175.999 211.06 176.592 204.585 C 177.184 198.11 177.925 191.572 178.813 184.971 C 179.702 178.369 180.718 171.831 181.86 165.356 C 183.003 158.882 184.124 152.682 185.225 146.758 C 185.986 142.695 186.621 139.098 187.129 135.967 C 187.637 132.835 188.123 129.704 188.589 126.572 C 189.054 123.441 189.583 120.076 190.176 116.479 C 190.768 112.882 191.488 108.63 192.334 103.721 C 192.757 101.351 193.477 99.087 194.492 96.929 C 195.508 94.771 196.798 92.866 198.364 91.216 C 199.93 89.565 201.771 88.254 203.887 87.28 C 206.003 86.307 208.33 85.82 210.869 85.82 C 217.132 85.82 221.702 88.74 224.58 94.58 L 223.184 101.816 C 222.422 105.879 221.427 110.64 220.2 116.099 C 218.973 121.558 217.661 127.503 216.265 133.936 C 214.868 140.368 213.472 147.118 212.075 154.185 C 210.679 161.252 209.409 168.424 208.267 175.703 C 207.124 182.982 206.193 190.218 205.474 197.412 C 204.754 204.606 204.395 211.546 204.395 218.232 C 204.395 223.311 204.754 227.923 205.474 232.07 C 206.193 236.217 207.357 239.751 208.965 242.671 C 210.573 245.591 212.646 247.855 215.186 249.463 C 217.725 251.071 220.771 251.875 224.326 251.875 C 227.881 251.875 231.563 251.134 235.371 249.653 C 239.18 248.172 243.009 246.247 246.86 243.877 C 250.711 241.507 254.478 238.799 258.159 235.752 C 261.841 232.705 265.29 229.637 268.506 226.548 C 271.722 223.459 274.6 220.454 277.139 217.534 C 279.678 214.614 281.751 212.096 283.359 209.98 C 284.121 208.965 284.946 207.886 285.835 206.743 C 286.724 205.601 287.739 204.521 288.882 203.506 C 290.024 202.49 291.252 201.644 292.563 200.967 C 293.875 200.29 295.293 199.951 296.816 199.951 C 298.001 199.951 299.017 200.438 299.863 201.411 C 300.71 202.384 301.133 203.802 301.133 205.664 Z M 463.125 172.402 C 463.125 174.01 462.596 175.724 461.538 177.544 C 460.48 179.364 459.126 181.183 457.476 183.003 C 455.825 184.823 453.942 186.621 451.826 188.398 C 449.71 190.176 447.594 191.805 445.479 193.286 C 443.363 194.767 441.353 196.058 439.448 197.158 C 437.544 198.258 435.957 199.105 434.688 199.697 C 432.402 200.628 429.461 201.496 425.864 202.3 C 422.267 203.104 418.501 203.781 414.565 204.331 C 410.63 204.881 406.821 205.326 403.14 205.664 C 399.458 206.003 396.348 206.172 393.809 206.172 C 393.216 206.172 392.391 206.108 391.333 205.981 C 390.275 205.854 389.132 205.664 387.905 205.41 C 386.678 205.156 385.451 204.839 384.224 204.458 C 382.996 204.077 381.96 203.59 381.113 202.998 C 382.044 204.945 382.573 207.082 382.7 209.409 C 382.827 211.737 382.891 214.043 382.891 216.328 C 382.891 217.936 382.721 219.84 382.383 222.041 C 382.044 224.242 381.6 226.484 381.05 228.77 C 380.5 231.055 379.844 233.255 379.082 235.371 C 378.32 237.487 377.516 239.264 376.67 240.703 C 374.554 244.342 372.29 247.686 369.878 250.732 C 367.466 253.779 364.779 256.615 361.816 259.238 C 358.854 261.862 355.511 264.316 351.787 266.602 C 348.063 268.887 343.747 271.13 338.838 273.33 C 333.59 275.615 328.343 277.202 323.096 278.091 C 317.848 278.979 312.432 279.424 306.846 279.424 C 302.699 279.424 299.017 278.345 295.801 276.187 C 292.585 274.028 289.876 271.13 287.676 267.49 C 285.475 263.851 283.804 259.661 282.661 254.922 C 281.519 250.182 280.947 245.231 280.947 240.068 C 280.947 238.799 281.053 237.212 281.265 235.308 C 281.476 233.403 281.772 231.478 282.153 229.531 C 282.534 227.585 282.957 225.68 283.423 223.818 C 283.888 221.956 284.333 220.391 284.756 219.121 C 285.941 215.566 287.655 211.504 289.897 206.934 C 292.14 202.363 294.785 197.687 297.832 192.905 C 300.879 188.123 304.264 183.426 307.988 178.813 C 311.712 174.201 315.669 170.096 319.858 166.499 C 324.048 162.902 328.407 160.003 332.935 157.803 C 337.463 155.602 342.012 154.502 346.582 154.502 C 348.529 154.502 350.094 154.692 351.279 155.073 C 352.464 155.454 353.438 155.962 354.199 156.597 C 354.961 157.231 355.659 157.951 356.294 158.755 C 356.929 159.559 357.627 160.342 358.389 161.104 C 358.981 160.934 359.595 160.807 360.229 160.723 C 360.864 160.638 361.52 160.596 362.197 160.596 C 364.821 160.596 367.402 161.611 369.941 163.643 C 372.48 165.674 375.062 167.917 377.686 170.371 C 378.87 171.471 380.076 172.593 381.304 173.735 C 382.531 174.878 383.652 175.894 384.668 176.782 C 385.684 177.671 386.593 178.39 387.397 178.94 C 388.201 179.491 388.773 179.766 389.111 179.766 C 391.312 179.766 393.703 179.744 396.284 179.702 C 398.866 179.66 401.489 179.575 404.155 179.448 C 406.821 179.321 409.403 179.131 411.899 178.877 C 414.396 178.623 416.66 178.327 418.691 177.988 C 418.945 177.904 420.046 177.629 421.992 177.163 C 423.939 176.698 426.287 176.105 429.038 175.386 C 431.789 174.666 434.772 173.883 437.988 173.037 C 441.204 172.191 444.188 171.408 446.938 170.688 C 449.689 169.969 452.059 169.377 454.048 168.911 C 456.037 168.446 457.201 168.213 457.539 168.213 C 459.232 168.213 460.586 168.424 461.602 168.848 C 462.617 169.271 463.125 170.456 463.125 172.402 Z M 316.621 257.08 C 323.477 257.08 329.549 255.26 334.839 251.621 C 340.129 247.982 344.593 243.136 348.232 237.085 C 351.872 231.034 354.686 224.136 356.675 216.392 C 358.664 208.647 359.701 200.671 359.785 192.461 C 359.193 191.191 358.325 189.88 357.183 188.525 C 356.04 187.171 354.749 185.965 353.311 184.907 C 351.872 183.849 350.391 182.982 348.867 182.305 C 347.344 181.628 345.947 181.289 344.678 181.289 C 342.646 181.289 340.446 182.093 338.076 183.701 C 335.706 185.309 333.506 186.96 331.475 188.652 C 329.443 190.345 327.433 192.567 325.444 195.317 C 323.455 198.068 321.615 201.136 319.922 204.521 C 318.229 207.907 316.663 211.483 315.225 215.249 C 313.786 219.015 312.559 222.739 311.543 226.421 C 310.527 230.103 309.744 233.678 309.194 237.148 C 308.644 240.618 308.369 243.708 308.369 246.416 C 308.369 247.77 308.581 249.082 309.004 250.352 C 309.427 251.621 309.998 252.764 310.718 253.779 C 311.437 254.795 312.305 255.599 313.32 256.191 C 314.336 256.784 315.436 257.08 316.621 257.08 Z M 627.275 183.193 C 624.99 186.494 622.959 189.774 621.182 193.032 C 619.404 196.291 617.754 199.634 616.23 203.062 C 614.707 206.489 613.226 210.044 611.787 213.726 C 610.348 217.407 608.867 221.364 607.344 225.596 C 606.159 228.981 604.868 232.896 603.472 237.339 C 602.075 241.782 600.615 246.31 599.092 250.923 C 597.568 255.535 595.981 260.085 594.331 264.57 C 592.681 269.056 590.988 273.034 589.253 276.504 C 587.518 279.974 585.741 282.788 583.921 284.946 C 582.101 287.104 580.26 288.184 578.398 288.184 C 573.066 288.184 568.433 287.38 564.497 285.771 C 560.562 284.163 557.113 281.582 554.15 278.027 C 552.034 275.488 550.215 273.013 548.691 270.601 C 547.168 268.188 545.771 265.713 544.502 263.174 C 543.232 260.635 542.047 257.969 540.947 255.176 C 539.847 252.383 538.577 249.336 537.139 246.035 C 535.277 241.719 533.626 237.614 532.188 233.721 C 530.749 229.827 529.648 225.596 528.887 221.025 C 527.871 223.395 526.559 226.294 524.951 229.722 C 523.343 233.149 521.693 236.704 520 240.386 C 518.307 244.067 516.593 247.622 514.858 251.05 C 513.123 254.478 511.621 257.419 510.352 259.873 C 506.882 266.305 503.75 271.976 500.957 276.885 C 498.164 281.794 495.583 285.856 493.213 289.072 C 490.843 292.288 488.643 294.722 486.611 296.372 C 484.58 298.022 482.591 298.848 480.645 298.848 C 476.751 298.848 473.006 296.986 469.409 293.262 C 465.812 289.538 462.49 284.629 459.443 278.535 C 456.396 272.441 453.625 265.522 451.128 257.778 C 448.631 250.034 446.494 242.184 444.717 234.229 C 442.939 226.273 441.564 218.55 440.591 211.06 C 439.617 203.569 439.131 196.989 439.131 191.318 C 439.131 188.949 439.279 186.621 439.575 184.336 C 439.871 182.051 440.4 180.4 441.162 179.385 C 442.686 177.354 443.934 175.703 444.907 174.434 C 445.881 173.164 446.875 172.127 447.891 171.323 C 448.906 170.519 450.07 169.906 451.382 169.482 C 452.694 169.059 454.492 168.763 456.777 168.594 C 458.893 168.594 460.755 169.059 462.363 169.99 C 463.971 170.921 465.304 172.085 466.362 173.481 C 467.42 174.878 468.224 176.423 468.774 178.115 C 469.325 179.808 469.6 181.374 469.6 182.813 C 469.6 185.69 469.6 188.293 469.6 190.62 C 469.6 192.948 469.642 195.36 469.727 197.856 C 469.811 200.353 469.896 203.104 469.98 206.108 C 470.065 209.113 470.234 212.773 470.488 217.09 C 470.573 218.783 470.827 221.089 471.25 224.009 C 471.673 226.929 472.223 230.039 472.9 233.34 C 473.577 236.641 474.318 239.984 475.122 243.369 C 475.926 246.755 476.751 249.823 477.598 252.573 C 478.444 255.324 479.29 257.567 480.137 259.302 C 480.983 261.037 481.745 261.904 482.422 261.904 C 482.422 261.904 482.93 260.889 483.945 258.857 C 484.961 256.826 486.315 254.139 488.008 250.796 C 489.701 247.453 491.626 243.644 493.784 239.37 C 495.942 235.096 498.185 230.716 500.513 226.23 C 502.84 221.745 505.189 217.323 507.559 212.964 C 509.928 208.605 512.087 204.733 514.033 201.348 C 515.387 198.978 516.678 196.65 517.905 194.365 C 519.132 192.08 520.444 189.816 521.841 187.573 C 523.237 185.33 524.803 183.109 526.538 180.908 C 528.273 178.708 530.41 176.592 532.949 174.561 C 535.742 174.814 538.239 175.449 540.439 176.465 C 542.386 177.396 544.121 178.708 545.645 180.4 C 547.168 182.093 547.93 184.421 547.93 187.383 C 547.93 187.975 547.93 188.377 547.93 188.589 C 547.93 188.8 547.909 188.991 547.866 189.16 C 547.824 189.329 547.803 189.562 547.803 189.858 C 547.803 190.155 547.803 190.684 547.803 191.445 C 547.803 194.154 548.162 197.327 548.882 200.967 C 549.601 204.606 550.575 208.478 551.802 212.583 C 553.029 216.688 554.447 220.856 556.055 225.088 C 557.663 229.32 559.334 233.361 561.069 237.212 C 562.804 241.063 564.561 244.575 566.338 247.749 C 568.115 250.923 569.766 253.483 571.289 255.43 C 573.828 248.49 575.986 241.761 577.764 235.244 C 579.541 228.727 581.445 222.231 583.477 215.757 C 585.508 209.282 587.962 202.702 590.84 196.016 C 593.717 189.329 597.484 182.305 602.139 174.941 C 602.816 173.926 603.81 172.826 605.122 171.641 C 606.434 170.456 607.894 169.355 609.502 168.34 C 611.11 167.324 612.824 166.478 614.644 165.801 C 616.463 165.124 618.219 164.785 619.912 164.785 C 621.605 164.785 623.044 165.103 624.229 165.737 C 625.413 166.372 626.387 167.218 627.148 168.276 C 627.91 169.334 628.481 170.519 628.862 171.831 C 629.243 173.143 629.434 174.476 629.434 175.83 C 629.434 177.1 629.243 178.411 628.862 179.766 C 628.481 181.12 627.952 182.262 627.275 183.193 Z M 807.549 242.734 C 808.988 242.734 810.363 243.306 811.675 244.448 C 812.987 245.591 813.643 247.051 813.643 248.828 C 813.643 250.013 813.177 251.685 812.246 253.843 C 811.315 256.001 809.897 258.371 807.993 260.952 C 806.089 263.534 803.698 266.157 800.82 268.823 C 797.943 271.489 794.557 273.901 790.664 276.06 C 786.771 278.218 782.349 279.995 777.397 281.392 C 772.446 282.788 766.924 283.486 760.83 283.486 C 754.313 283.486 747.733 283 741.089 282.026 C 734.445 281.053 728.309 279.995 722.681 278.853 C 717.052 277.71 712.207 276.652 708.145 275.679 C 704.082 274.705 701.416 274.219 700.146 274.219 C 697.777 274.219 695.661 274.43 693.799 274.854 C 691.937 275.277 690.244 275.827 688.721 276.504 C 687.197 277.181 685.822 277.943 684.595 278.789 C 683.367 279.635 682.161 280.524 680.977 281.455 C 678.945 283.063 677.231 284.481 675.835 285.708 C 674.438 286.935 673.169 287.951 672.026 288.755 C 670.884 289.559 669.741 290.151 668.599 290.532 C 667.456 290.913 666.038 291.103 664.346 291.104 C 662.23 291.103 660.389 290.68 658.823 289.834 C 657.257 288.988 655.967 287.866 654.951 286.47 C 653.936 285.073 653.174 283.529 652.666 281.836 C 652.158 280.143 651.904 278.493 651.904 276.885 C 653.343 273.838 655.226 271.045 657.554 268.506 C 659.881 265.967 662.378 263.555 665.044 261.27 C 667.71 258.984 670.418 256.72 673.169 254.478 C 675.92 252.235 678.438 249.928 680.723 247.559 C 681.569 246.712 683.452 244.723 686.372 241.592 C 689.292 238.46 692.741 234.8 696.719 230.61 C 700.697 226.421 704.886 221.956 709.287 217.217 C 713.688 212.477 717.772 208.097 721.538 204.077 C 725.304 200.057 728.478 196.65 731.06 193.857 C 733.641 191.064 735.059 189.499 735.313 189.16 C 732.012 189.245 728.245 189.583 724.014 190.176 C 719.782 190.768 715.423 191.424 710.938 192.144 C 706.452 192.863 702.008 193.519 697.607 194.111 C 693.206 194.704 689.229 195 685.674 195 C 677.887 195 672.301 193.9 668.916 191.699 C 665.531 189.499 663.838 185.563 663.838 179.893 C 663.838 178.031 664.219 176.338 664.98 174.814 C 665.742 173.291 666.779 171.979 668.091 170.879 C 669.403 169.779 670.926 168.911 672.661 168.276 C 674.396 167.642 676.237 167.324 678.184 167.324 C 680.638 167.324 682.902 167.451 684.976 167.705 C 687.049 167.959 689.038 168.234 690.942 168.53 C 692.847 168.826 694.666 169.102 696.401 169.355 C 698.136 169.609 699.935 169.736 701.797 169.736 C 706.79 169.736 712.376 169.25 718.555 168.276 C 724.733 167.303 730.996 166.478 737.344 165.801 C 738.444 165.632 740.242 165.293 742.739 164.785 C 745.236 164.277 747.839 163.77 750.547 163.262 C 753.255 162.754 755.837 162.31 758.291 161.929 C 760.745 161.548 762.48 161.357 763.496 161.357 C 765.866 161.357 767.749 161.654 769.146 162.246 C 770.542 162.839 771.621 163.727 772.383 164.912 C 773.145 166.097 773.631 167.578 773.843 169.355 C 774.054 171.133 774.16 173.249 774.16 175.703 C 772.467 178.919 770.711 181.86 768.892 184.526 C 767.072 187.192 765.21 189.71 763.306 192.08 C 761.401 194.45 759.434 196.735 757.402 198.936 C 755.371 201.136 753.255 203.337 751.055 205.537 C 749.023 207.653 747.098 209.705 745.278 211.694 C 743.459 213.683 741.597 215.757 739.692 217.915 C 737.788 220.073 735.757 222.358 733.599 224.771 C 731.44 227.183 729.049 229.827 726.426 232.705 C 724.987 234.313 723.379 236.027 721.602 237.847 C 719.824 239.666 718.089 241.486 716.396 243.306 C 714.704 245.125 713.117 246.882 711.636 248.574 C 710.155 250.267 708.949 251.833 708.018 253.271 C 710.303 253.271 713.053 253.42 716.27 253.716 C 719.486 254.012 722.892 254.414 726.489 254.922 C 730.086 255.43 733.768 255.938 737.534 256.445 C 741.3 256.953 744.897 257.461 748.325 257.969 C 751.753 258.477 754.863 258.879 757.656 259.175 C 760.449 259.471 762.734 259.619 764.512 259.619 C 766.543 259.619 768.743 259.471 771.113 259.175 C 773.483 258.879 775.895 258.392 778.35 257.715 C 780.804 257.038 783.216 256.107 785.586 254.922 C 787.956 253.737 790.114 252.256 792.061 250.479 C 793.922 248.786 795.531 247.453 796.885 246.479 C 798.239 245.506 799.487 244.723 800.63 244.131 C 801.772 243.538 802.894 243.158 803.994 242.988 C 805.094 242.819 806.279 242.734 807.549 242.734 Z"/>
    <linearGradient id="flowz-blue" x1="96" y1="136" x2="1538" y2="486" gradientUnits="userSpaceOnUse">
      <stop offset="0" stop-color="#55C8FF"/>
      <stop offset="0.36" stop-color="#24A4EE"/>
      <stop offset="0.72" stop-color="#1189D9"/>
      <stop offset="1" stop-color="#0871C7"/>
    </linearGradient>
    <linearGradient id="flowz-depth" x1="180" y1="520" x2="1460" y2="168" gradientUnits="userSpaceOnUse">
      <stop offset="0" stop-color="#0568B8" stop-opacity="0.28"/>
      <stop offset="0.58" stop-color="#0568B8" stop-opacity="0.1"/>
      <stop offset="1" stop-color="#55C8FF" stop-opacity="0"/>
    </linearGradient>
    <linearGradient id="flowz-gloss" x1="190" y1="122" x2="1230" y2="320" gradientUnits="userSpaceOnUse">
      <stop offset="0" stop-color="#FFFFFF" stop-opacity="0.36"/>
      <stop offset="0.48" stop-color="#FFFFFF" stop-opacity="0.14"/>
      <stop offset="1" stop-color="#FFFFFF" stop-opacity="0"/>
    </linearGradient>
    <filter id="flowz-soft-shadow" x="-8%" y="-18%" width="116%" height="144%">
      <feDropShadow dx="0" dy="18" stdDeviation="18" flood-color="#0871C7" flood-opacity="0.16"/>
      <feDropShadow dx="0" dy="4" stdDeviation="5" flood-color="#075FAA" flood-opacity="0.13"/>
    </filter>
  </defs>
  <g transform="translate(47.603 -46.328) scale(1.853)">
    <use href="#flowz-wordmark" fill="url(#flowz-depth)" transform="translate(0 8)"/>
    <use href="#flowz-wordmark" fill="url(#flowz-blue)" filter="url(#flowz-soft-shadow)"/>
    <use href="#flowz-wordmark" fill="url(#flowz-gloss)" opacity="0.42" transform="translate(-3 -5)"/>
  </g>
</svg>
