<svg xmlns="http://www.w3.org/2000/svg" viewBox="0 0 1920 1200" role="img" aria-labelledby="brandkit-title brandkit-desc">
  <title id="brandkit-title">Flowz Brand Kit Board</title>
  <desc id="brandkit-desc">A premium 3 by 3 brand system board for Flowz, a fast Windows voice dictation app.</desc>
  <defs>
    <linearGradient id="board-bg" x1="0" y1="0" x2="1" y2="1">
      <stop offset="0" stop-color="#071521"/>
      <stop offset="0.48" stop-color="#0A1D2D"/>
      <stop offset="1" stop-color="#04101A"/>
    </linearGradient>
    <linearGradient id="flow-blue" x1="0" y1="0" x2="1" y2="1">
      <stop offset="0" stop-color="#45BDFF"/>
      <stop offset="0.38" stop-color="#1C9CEB"/>
      <stop offset="0.72" stop-color="#1289DB"/>
      <stop offset="1" stop-color="#0871C1"/>
    </linearGradient>
    <radialGradient id="mist" cx="50%" cy="38%" r="70%">
      <stop offset="0" stop-color="#FFFFFF"/>
      <stop offset="0.62" stop-color="#F8FCFF"/>
      <stop offset="1" stop-color="#EAF7FF"/>
    </radialGradient>
    <filter id="panel-shadow" x="-8%" y="-8%" width="116%" height="116%">
      <feDropShadow dx="0" dy="22" stdDeviation="22" flood-color="#000000" flood-opacity="0.28"/>
    </filter>
    <filter id="blue-glow" x="-30%" y="-30%" width="160%" height="160%">
      <feDropShadow dx="0" dy="0" stdDeviation="18" flood-color="#1C9CEB" flood-opacity="0.38"/>
    </filter>
    <pattern id="micro-grid" width="28" height="28" patternUnits="userSpaceOnUse">
      <path d="M28 0H0V28" fill="none" stroke="#FFFFFF" stroke-opacity="0.055" stroke-width="1"/>
    </pattern>
    <style>
      .caption {
        fill: #7B94A8;
        font-family: "Geist", "Segoe UI", sans-serif;
        font-size: 16px;
        letter-spacing: 0;
        text-transform: uppercase;
      }
      .small {
        fill: #AFC4D4;
        font-family: "Geist", "Segoe UI", sans-serif;
        font-size: 18px;
      }
      .body {
        fill: #DCEAF4;
        font-family: "Geist", "Segoe UI", sans-serif;
        font-size: 24px;
        letter-spacing: 0;
      }
      .title {
        fill: #FFFFFF;
        font-family: "Cabinet Grotesk", "Satoshi", "Segoe UI", sans-serif;
        font-size: 54px;
        font-weight: 700;
        letter-spacing: 0;
      }
      .display {
        fill: #071521;
        font-family: "Cabinet Grotesk", "Satoshi", "Segoe UI", sans-serif;
        font-size: 78px;
        font-weight: 760;
        letter-spacing: 0;
      }
      .mono {
        fill: #AFC4D4;
        font-family: "JetBrains Mono", "Cascadia Code", monospace;
        font-size: 18px;
      }
      .panel {
        filter: url(#panel-shadow);
      }
    </style>
    <symbol id="flowz-wordmark" viewBox="0 0 1640 620">
      <g>
        <path fill="none" stroke="url(#flow-blue)" stroke-linecap="round" stroke-linejoin="round" stroke-width="54" d="M478 112 C405 82 358 146 338 274 C320 393 286 501 211 518 C167 528 141 506 151 469 C168 410 260 361 382 343 C488 327 607 340 720 374"/>
        <path fill="none" stroke="url(#flow-blue)" stroke-linecap="round" stroke-linejoin="round" stroke-width="48" d="M126 350 C233 284 410 268 592 287 C648 293 701 306 750 325"/>
        <path fill="none" stroke="url(#flow-blue)" stroke-linecap="round" stroke-linejoin="round" stroke-width="54" d="M640 404 C584 331 606 207 666 121 C714 52 778 67 754 147 C730 226 642 326 633 390 C626 443 690 457 735 393"/>
        <path fill="none" stroke="url(#flow-blue)" stroke-linecap="round" stroke-linejoin="round" stroke-width="52" d="M766 386 C759 330 798 292 851 292 C923 292 956 357 929 414 C902 467 820 481 776 432 C740 391 755 335 811 312"/>
        <path fill="none" stroke="url(#flow-blue)" stroke-linecap="round" stroke-linejoin="round" stroke-width="50" d="M960 350 C937 448 994 480 1043 376 C1024 469 1086 490 1138 389 C1172 323 1224 318 1237 377 C1251 443 1305 459 1352 386"/>
        <path fill="none" stroke="url(#flow-blue)" stroke-linecap="round" stroke-linejoin="round" stroke-width="50" d="M1307 327 C1383 335 1464 335 1532 326 C1559 323 1564 346 1537 369 C1484 414 1400 471 1374 512 C1356 540 1374 560 1421 554 C1490 544 1540 502 1572 452"/>
        <path fill="none" stroke="url(#flow-blue)" stroke-linecap="round" stroke-linejoin="round" stroke-width="38" d="M1568 452 C1584 428 1593 401 1596 373"/>
      </g>
    </symbol>
  </defs>

  <rect width="1920" height="1200" fill="url(#board-bg)"/>
  <rect width="1920" height="1200" fill="url(#micro-grid)" opacity="0.72"/>
  <circle cx="1460" cy="88" r="440" fill="#1C9CEB" opacity="0.09"/>
  <circle cx="344" cy="1110" r="360" fill="#45BDFF" opacity="0.07"/>

  <text x="80" y="74" class="caption">Flowz identity system</text>
  <text x="1840" y="74" class="caption" text-anchor="end">voice to text, instantly</text>

  <!-- Panel coordinates: x 80/660/1240, y 118/454/790, w 520, h 276 -->

  <g class="panel">
    <rect x="80" y="118" width="520" height="276" rx="22" fill="url(#mist)"/>
    <circle cx="340" cy="258" r="170" fill="#1C9CEB" opacity="0.08"/>
    <use href="#flowz-wordmark" x="126" y="174" width="428" height="168" filter="url(#blue-glow)"/>
    <text x="340" y="344" text-anchor="middle" fill="#163044" font-family="Geist, Segoe UI, sans-serif" font-size="20">fast voice dictation for Windows</text>
  </g>

  <g class="panel">
    <rect x="660" y="118" width="520" height="276" rx="22" fill="#0D2234" stroke="#FFFFFF" stroke-opacity="0.08"/>
    <text x="704" y="168" class="caption">motion logic</text>
    <path d="M742 282 C835 188 935 185 1008 272 C1054 328 1105 330 1140 276" fill="none" stroke="#1C9CEB" stroke-width="14" stroke-linecap="round"/>
    <path d="M742 282 C835 188 935 185 1008 272 C1054 328 1105 330 1140 276" fill="none" stroke="#FFFFFF" stroke-width="3" stroke-linecap="round" stroke-dasharray="10 14" opacity="0.28"/>
    <circle cx="742" cy="282" r="12" fill="#2CD889"/>
    <circle cx="1140" cy="276" r="12" fill="#FF4D5E"/>
    <text x="704" y="350" class="small">A continuous line: speech becomes text without a hard edge.</text>
  </g>

  <g class="panel">
    <rect x="1240" y="118" width="520" height="276" rx="22" fill="#081827" stroke="#FFFFFF" stroke-opacity="0.08"/>
    <rect x="1284" y="158" width="432" height="196" rx="18" fill="#F8FCFF"/>
    <rect x="1284" y="158" width="432" height="38" rx="18" fill="#EAF7FF"/>
    <circle cx="1310" cy="177" r="5" fill="#FF4D5E"/>
    <circle cx="1328" cy="177" r="5" fill="#E6A93A"/>
    <circle cx="1346" cy="177" r="5" fill="#2CD889"/>
    <rect x="1316" y="232" width="336" height="42" rx="21" fill="#071521"/>
    <text x="1342" y="259" font-family="JetBrains Mono, Cascadia Code, monospace" font-size="17" fill="#FFFFFF">Ctrl + Win   speak now</text>
    <path d="M1330 311 L1350 291 L1370 311 L1390 286 L1410 315 L1432 297 L1454 311" fill="none" stroke="#1C9CEB" stroke-width="7" stroke-linecap="round"/>
    <text x="1488" y="316" fill="#163044" font-family="Geist, Segoe UI, sans-serif" font-size="20">pasted text</text>
  </g>

  <g class="panel">
    <rect x="80" y="454" width="520" height="276" rx="22" fill="#0D2234" stroke="#FFFFFF" stroke-opacity="0.08"/>
    <text x="124" y="518" class="title">Hold.<tspan x="124" dy="62">Speak.</tspan><tspan x="124" dy="62">Release.</tspan></text>
    <text x="124" y="676" class="small">A product rhythm short enough</text>
    <text x="124" y="704" class="small">to remember and fast enough to trust.</text>
  </g>

  <g class="panel">
    <rect x="660" y="454" width="520" height="276" rx="22" fill="#F8FCFF"/>
    <text x="704" y="510" fill="#163044" font-family="Geist, Segoe UI, sans-serif" font-size="18" letter-spacing="0">PALETTE</text>
    <g transform="translate(704 550)">
      <circle cx="0" cy="0" r="34" fill="#45BDFF"/>
      <circle cx="82" cy="0" r="34" fill="#1C9CEB"/>
      <circle cx="164" cy="0" r="34" fill="#1289DB"/>
      <circle cx="246" cy="0" r="34" fill="#0871C1"/>
      <circle cx="328" cy="0" r="34" fill="#071521"/>
      <circle cx="410" cy="0" r="34" fill="#2CD889"/>
    </g>
    <text x="704" y="646" fill="#071521" font-family="Cabinet Grotesk, Satoshi, Segoe UI, sans-serif" font-size="40" font-weight="760" letter-spacing="0">Mist-white surfaces,</text>
    <text x="704" y="694" fill="#071521" font-family="Cabinet Grotesk, Satoshi, Segoe UI, sans-serif" font-size="40" font-weight="760" letter-spacing="0">blue motion accents.</text>
  </g>

  <g class="panel">
    <rect x="1240" y="454" width="520" height="276" rx="22" fill="#0D2234" stroke="#FFFFFF" stroke-opacity="0.08"/>
    <text x="1284" y="520" class="caption">type system</text>
    <text x="1284" y="590" fill="#FFFFFF" font-family="Cabinet Grotesk, Satoshi, Segoe UI, sans-serif" font-size="58" font-weight="760" letter-spacing="0">Cabinet Grotesk</text>
    <text x="1284" y="640" class="body">Geist for interface clarity</text>
    <text x="1284" y="688" class="mono">JetBrains Mono for commands</text>
  </g>

  <g class="panel">
    <rect x="80" y="790" width="520" height="276" rx="22" fill="#F8FCFF"/>
    <rect x="142" y="848" width="396" height="158" rx="22" fill="#FFFFFF" stroke="#DCEAF4"/>
    <use href="#flowz-wordmark" x="176" y="866" width="158" height="62"/>
    <text x="178" y="952" fill="#163044" font-family="Geist, Segoe UI, sans-serif" font-size="22">voice to text, instantly</text>
    <path d="M412 941 C431 918 452 918 469 939 C481 954 498 952 510 936" fill="none" stroke="#1C9CEB" stroke-width="8" stroke-linecap="round"/>
  </g>

  <g class="panel">
    <rect x="660" y="790" width="520" height="276" rx="22" fill="#081827" stroke="#FFFFFF" stroke-opacity="0.08"/>
    <text x="704" y="850" class="caption">visual world</text>
    <rect x="704" y="884" width="188" height="128" rx="18" fill="#EAF7FF" opacity="0.92"/>
    <path d="M720 965 C765 915 809 931 851 889" fill="none" stroke="#1C9CEB" stroke-width="10" stroke-linecap="round" opacity="0.74"/>
    <rect x="920" y="884" width="216" height="128" rx="18" fill="#10283B"/>
    <path d="M952 946 H1102" stroke="#45BDFF" stroke-width="8" stroke-linecap="round"/>
    <path d="M952 976 H1044" stroke="#AFC4D4" stroke-width="8" stroke-linecap="round" opacity="0.45"/>
    <text x="704" y="1036" class="small">Clean app surfaces, soft signal traces, no generic AI glow.</text>
  </g>

  <g class="panel">
    <rect x="1240" y="790" width="520" height="276" rx="22" fill="#F8FCFF"/>
    <text x="1284" y="850" fill="#163044" font-family="Geist, Segoe UI, sans-serif" font-size="18" letter-spacing="0">SYSTEM DETAIL</text>
    <rect x="1284" y="890" width="146" height="48" rx="24" fill="#071521"/>
    <text x="1310" y="920" fill="#FFFFFF" font-family="Geist, Segoe UI, sans-serif" font-size="18">Recording</text>
    <rect x="1450" y="890" width="108" height="48" rx="24" fill="#2CD889"/>
    <text x="1477" y="920" fill="#071521" font-family="Geist, Segoe UI, sans-serif" font-size="18">Ready</text>
    <rect x="1578" y="890" width="104" height="48" rx="24" fill="#E6A93A"/>
    <text x="1604" y="920" fill="#071521" font-family="Geist, Segoe UI, sans-serif" font-size="18">Paused</text>
    <text x="1284" y="986" fill="#071521" font-family="Cabinet Grotesk, Satoshi, Segoe UI, sans-serif" font-size="38" font-weight="760" letter-spacing="0">The interface confirms</text>
    <text x="1284" y="1032" fill="#071521" font-family="Cabinet Grotesk, Satoshi, Segoe UI, sans-serif" font-size="38" font-weight="760" letter-spacing="0">when speech can begin.</text>
  </g>

  <text x="80" y="1140" class="caption">primary asset: assets/flowz-logo.svg</text>
  <text x="1840" y="1140" class="caption" text-anchor="end">donate: 0x5d72...d3db0B4</text>
</svg>
